<svg xmlns="http://www.w3.org/2000/svg" xmlns:xlink="http://www.w3.org/1999/xlink" viewBox="0 0 1920 8395.76"><defs><style>.cls-1,.cls-18,.cls-19,.cls-20,.cls-22,.cls-27,.cls-28,.cls-35,.cls-53,.cls-54,.cls-55,.cls-56,.cls-57,.cls-61,.cls-62,.cls-65,.cls-66,.cls-67,.cls-68{fill:none;}.cls-13,.cls-17,.cls-2,.cls-29,.cls-46,.cls-58,.cls-63,.cls-80,.cls-81{fill:#fff;}.cls-3,.cls-44,.cls-75{fill:#3d44bf;}.cls-18,.cls-35,.cls-4{stroke:#83dacf;}.cls-4{stroke-width:2px;}.cls-10,.cls-13,.cls-17,.cls-29,.cls-31,.cls-33,.cls-34,.cls-36,.cls-37,.cls-40,.cls-44,.cls-46,.cls-5,.cls-51,.cls-52,.cls-53,.cls-58,.cls-6,.cls-63,.cls-69,.cls-75,.cls-80,.cls-81{isolation:isolate;}.cls-44,.cls-6,.cls-63{font-size:30px;}.cls-31,.cls-33,.cls-6,.cls-8{fill:#83dacf;}.cls-6,.cls-69,.cls-80{font-family:Ubuntu;}.cls-7{letter-spacing:-0.01em;}.cls-9{letter-spacing:-0.01em;}.cls-10{font-size:170px;}.cls-10,.cls-26,.cls-37,.cls-40,.cls-52{fill:#d92883;}.cls-10,.cls-13,.cls-75,.cls-81{font-family:Ubuntu-Bold, Ubuntu;font-weight:700;}.cls-11{letter-spacing:0.01em;}.cls-12{letter-spacing:0em;}.cls-13,.cls-37,.cls-46{font-size:80px;}.cls-14{letter-spacing:-0.01em;}.cls-15{letter-spacing:0.01em;}.cls-16{letter-spacing:0em;}.cls-17,.cls-33,.cls-52,.cls-58{font-size:45px;}.cls-17,.cls-29,.cls-31,.cls-51,.cls-52,.cls-63{font-family:SegoeUI, Segoe UI;}.cls-18,.cls-19,.cls-20,.cls-22{stroke-width:20px;}.cls-19{stroke:#af40d6;}.cls-20{stroke:#d92883;}.cls-21{clip-path:url(#clip-path);}.cls-22,.cls-54,.cls-55,.cls-56,.cls-57,.cls-61,.cls-62,.cls-65,.cls-66,.cls-67{stroke:#fff;}.cls-23,.cls-36{fill:#2d33a7;}.cls-24{fill:#273295;}.cls-25{fill:#e44c9f;}.cls-27{stroke:#1c1f5e;}.cls-27,.cls-61,.cls-62{stroke-width:8px;}.cls-28{stroke:#273295;}.cls-28,.cls-54,.cls-62,.cls-65,.cls-66,.cls-67{stroke-linecap:round;stroke-linejoin:round;}.cls-28,.cls-54{stroke-width:4px;}.cls-29,.cls-51{font-size:20px;}.cls-30{letter-spacing:-0.03em;}.cls-31{font-size:40px;}.cls-32{fill:#1c1f5e;}.cls-33,.cls-34,.cls-36,.cls-37,.cls-40,.cls-44,.cls-46,.cls-58{font-family:SegoeUI-Semibold, Segoe UI;font-weight:600;}.cls-34,.cls-36{font-size:43px;}.cls-34{fill:#75bcc8;}.cls-35{stroke-width:3px;}.cls-38{letter-spacing:-0.02em;}.cls-39{fill:#e2e1e1;}.cls-40{font-size:35px;}.cls-41{letter-spacing:-0.02em;}.cls-42{letter-spacing:-0.06em;}.cls-43{letter-spacing:-0.05em;}.cls-45{letter-spacing:-0.01em;}.cls-47{letter-spacing:-0.01em;}.cls-48{letter-spacing:-0.04em;}.cls-49{letter-spacing:-0.07em;}.cls-50{letter-spacing:-0.01em;}.cls-51{fill:#381b1b;}.cls-53{stroke:#7e0c47;opacity:0.43;}.cls-55,.cls-56,.cls-57,.cls-61{stroke-miterlimit:10;}.cls-55{stroke-width:7px;}.cls-56{stroke-width:6px;}.cls-57{stroke-width:5px;}.cls-59{letter-spacing:-0.01em;}.cls-60{letter-spacing:-0.05em;}.cls-64{letter-spacing:-0.07em;}.cls-65{stroke-width:2.91px;}.cls-66{stroke-width:3.18px;}.cls-67{stroke-width:2.93px;}.cls-68{opacity:0.07;}.cls-69,.cls-80{font-size:24px;}.cls-69{fill:#3c3fbf;}.cls-70{letter-spacing:-0.01em;}.cls-71{letter-spacing:-0.01em;}.cls-72{letter-spacing:0em;}.cls-73{letter-spacing:-0.01em;}.cls-74{letter-spacing:0.02em;}.cls-75,.cls-81{font-size:32px;}.cls-76{letter-spacing:-0.02em;}.cls-77{fill:#dc5da5;}.cls-78{clip-path:url(#clip-path-2);}.cls-79{clip-path:url(#clip-path-3);}</style><clipPath id="clip-path"><rect class="cls-1" x="288" y="446.09" width="491" height="491" rx="245"/></clipPath><clipPath id="clip-path-2"><circle class="cls-1" cx="416" cy="6719.37" r="153"/></clipPath><clipPath id="clip-path-3"><circle class="cls-1" cx="416" cy="7570.51" r="153"/></clipPath><image id="image" width="1920" height="1280" xlink:href="../../../../img/ecommerce-2607114_1920.jpg"/></defs><g id="Capa_2" data-name="Capa 2"><g id="Capa_2-2" data-name="Capa 2"><rect class="cls-2" y="2605.18" width="1920" height="5318.41"/><g id="Trazado_37" data-name="Trazado 37"><path class="cls-3" d="M1920,1494.37H0V.17H1920Z"/></g><path id="Trazado_25" data-name="Trazado 25" class="cls-4" d="M988.5,767.59h609"/><path id="Trazado_26" data-name="Trazado 26" class="cls-4" d="M988.5,972.59h609"/><g id="list--icon--v1_text" data-name="list--icon--v1  text" class="cls-5"><text class="cls-6" transform="translate(1043 940.09)">twii<tspan class="cls-7" x="50.55" y="0">t</tspan><tspan x="62.31" y="0">er: @noeleo25</tspan></text></g><g id="list--icon--v1_ic-container" data-name="list--icon--v1  ic-container"><path id="Trazado_22" data-name="Trazado 22" class="cls-8" d="M1023,920.6a12,12,0,0,1-3.53,1,6.17,6.17,0,0,0,2.7-3.4,12.48,12.48,0,0,1-3.91,1.5,6.16,6.16,0,0,0-10.49,5.6,17.48,17.48,0,0,1-12.68-6.43,6.17,6.17,0,0,0,1.9,8.22,6.21,6.21,0,0,1-2.79-.77,6.16,6.16,0,0,0,4.94,6.11,6.08,6.08,0,0,1-2.78.1,6.16,6.16,0,0,0,5.75,4.28,12.39,12.39,0,0,1-9.11,2.55,17.43,17.43,0,0,0,9.44,2.77c11.42,0,17.88-9.65,17.49-18.31A12.59,12.59,0,0,0,1023,920.6Z"/><rect id="Rectángulo_55" data-name="Rectángulo 55" class="cls-1" x="993" y="914.09" width="30" height="30"/></g><g id="list--icon--v1_text-2" data-name="list--icon--v1  text-2" class="cls-5"><text class="cls-6" transform="translate(1043 881.09)">noemi.<tspan class="cls-7" x="92.49" y="0">t</tspan><tspan x="104.25" y="0">elematik213@gmail.</tspan><tspan class="cls-9" x="384.02" y="0">c</tspan><tspan x="397.58" y="0">om</tspan></text></g><g id="list--icon--v1_ic-container-2" data-name="list--icon--v1  ic-container-2"><path id="Trazado_21" data-name="Trazado 21" class="cls-8" d="M1020,859.07H996a3,3,0,0,0-3,3l0,18a3,3,0,0,0,3,3h24a3,3,0,0,0,3-3v-18A3,3,0,0,0,1020,859.07Zm0,21H996v-15l12,7.5,12-7.5Zm-12-10.5-12-7.5h24Z"/><rect id="Rectángulo_54" data-name="Rectángulo 54" class="cls-1" x="993" y="855.09" width="30" height="30"/></g><g id="list--icon--v1_text-3" data-name="list--icon--v1  text-3" class="cls-5"><text class="cls-6" transform="translate(1043 822.09)">9981 42 43 33</text></g><g id="list--icon--v1_ic-container-3" data-name="list--icon--v1  ic-container-3"><g id="Grupo_34" data-name="Grupo 34"><path id="Trazado_20" data-name="Trazado 20" class="cls-8" d="M1015.31,796.11l-13.64,0a2.73,2.73,0,0,0-2.71,2.73v24.55a2.71,2.71,0,0,0,2.71,2.72h13.64a2.73,2.73,0,0,0,2.73-2.72V798.82A2.73,2.73,0,0,0,1015.31,796.11Zm0,24.53h-13.64V801.55h13.64Z"/><rect id="Rectángulo_53" data-name="Rectángulo 53" class="cls-1" x="993" y="796.09" width="30" height="30"/></g></g><g id="Hola_" data-name="Hola " class="cls-5"><text class="cls-10" transform="translate(988 534.09)">Ho<tspan class="cls-11" x="227.97" y="0">l</tspan><tspan class="cls-12" x="284.24" y="0">a!</tspan></text></g><g id="soy:_Nohemi_Leon" data-name="soy: Nohemi Leon" class="cls-5"><text class="cls-13" transform="translate(988 641.09)">s<tspan class="cls-14" x="38.8" y="0">o</tspan><tspan class="cls-15" x="86.24" y="0">y</tspan><tspan class="cls-16" x="131.2" y="0">: Nohemi Leon</tspan></text></g><g id="front-end_developer" data-name="front-end developer" class="cls-5"><text class="cls-17" transform="translate(988 705.09)">front-end developer</text></g><g id="Elipse_5" data-name="Elipse 5"><circle class="cls-1" cx="718" cy="828.09" r="111"/><circle class="cls-18" cx="718" cy="828.09" r="101"/></g><g id="Elipse_7" data-name="Elipse 7"><circle class="cls-1" cx="341" cy="840.09" r="109"/><circle class="cls-19" cx="341" cy="840.09" r="99"/></g><g id="Elipse_6" data-name="Elipse 6"><ellipse class="cls-1" cx="668" cy="533.59" rx="113" ry="112.5"/><ellipse class="cls-20" cx="668" cy="533.59" rx="103" ry="102.5"/></g><g id="descarga"><g class="cls-21"><image width="400" height="400" transform="translate(278.99 437.09) scale(1.27)" xlink:href="../../../../img/descarga.jpg"/></g><rect class="cls-22" x="298" y="456.09" width="471" height="471" rx="235"/></g><path id="l-row--full" class="cls-23" d="M1920,3121s-208.59,60-490.58,60c-141,0-300.36-15-461.22-60C485.68,2985.89,0,3121,0,3121V1280.52s469.27-135.09,951.8,0,968.2,0,968.2,0Z"/><path class="cls-24" d="M1920,1404.9V2996.62s-208.59,61.21-490.58,61.22c-141,0-300.36-15.3-461.22-61.22-482.52-137.77-968.2,0-968.2,0V1404.9s469.26-137.77,951.79,0S1920,1404.9,1920,1404.9Z"/><path id="l-row--full-2" data-name="l-row--full" class="cls-25" d="M1920,6075.23s-208.59,60-490.58,60.05c-141,0-300.36-15-461.22-60.05-482.52-135.09-968.2,0-968.2,0V4482.77s469.27-135.1,951.8,0,968.2,0,968.2,0Z"/><path class="cls-26" d="M1920,4607.14V5950.86s-208.59,61.22-490.58,61.23c-141,0-300.36-15.3-461.22-61.23-482.52-137.76-968.2,0-968.2,0V4607.14s469.26-137.77,951.79,0S1920,4607.14,1920,4607.14Z"/><path id="exp-edu_center_line--vertical" data-name="exp-edu  center  line--vertical" class="cls-27" d="M579.5,1933.68v577"/><g id="bnt--v1-to--close"><circle id="Elipse_22" data-name="Elipse 22" class="cls-8" cx="1063.5" cy="2800.68" r="19.5"/><path id="Trazado_31" data-name="Trazado 31" class="cls-28" d="M1073.59,2805.07l-10.14-10.14-10.14,10.14"/></g><g id="card--transparent-v1_colum-2_description" data-name="card--transparent-v1  colum-2  description" class="cls-5"><text class="cls-29" transform="translate(733 2524.18)">Lorem Ipsum is simply dummy text of the printing and typesetting industry. </text><text class="cls-29" transform="translate(733 2551.18)">Lorem Ipsum has been the industry&apos;s standard dummy text ever since the 1500s, </text><text class="cls-29" transform="translate(733 2578.18)">when an unknown printer took a galley of type and scrambled it to make a type </text><text class="cls-29" transform="translate(733 2605.18)">specimen book. It has survived not only five centuries, but also the leap into </text><text class="cls-29" transform="translate(733 2632.18)">electronic typesetting, remaining essentially unchanged. It was popularised in the </text><text class="cls-29" transform="translate(733 2659.18)">1960s with the release of Letraset sheets containing Lorem Ipsum passages, and </text><text class="cls-29" transform="translate(733 2686.18)">more recently with desktop publishing software like Aldus <tspan class="cls-30" x="515.19" y="0">P</tspan><tspan x="525.7" y="0">ageMaker including </tspan></text><text class="cls-29" transform="translate(733 2713.18)">versions of Lorem Ipsum.Ipsum is simply dummy text of the printing and </text><text class="cls-29" transform="translate(733 2740.18)">typesetting industry. Lorem Ipsum has been the industry&apos;s standard dummy text</text></g><g id="card--transparent-v1_colum-2_title" data-name="card--transparent-v1  colum-2  title" class="cls-5"><text class="cls-31" transform="translate(733 2481.18)">Universidad metropolitana de cancun</text></g><circle id="form--circle" class="cls-32" cx="579" cy="2525.18" r="109"/><g id="year" class="cls-5"><text class="cls-33" transform="translate(533 2544.18)">2017</text></g><g id="bnt--v1-to--show"><circle id="Elipse_22-2" data-name="Elipse 22-2" class="cls-8" cx="1063.5" cy="2344.68" r="19.5"/><path id="Trazado_31-2" data-name="Trazado 31-2" class="cls-28" d="M1053.41,2340.3l10.14,10.14,10.14-10.14"/></g><g id="card--transparent-v1_colum-2_description-2" data-name="card--transparent-v1  colum-2  description-2" class="cls-5"><text class="cls-29" transform="translate(733 2204.18)">Lorem Ipsum is simply dummy text of the printing and typesetting industry. </text><text class="cls-29" transform="translate(733 2231.18)">Lorem Ipsum has been the industry&apos;s standard dummy text ever since the 1500s, </text><text class="cls-29" transform="translate(733 2258.18)">when an unknown printer took a galley of type and scrambled it to make a type </text><text class="cls-29" transform="translate(733 2285.18)">specimen book. It has survived not only five centuries, but also the leap into</text></g><g id="card--transparent-v1_colum-2_title-2" data-name="card--transparent-v1  colum-2  title-2" class="cls-5"><text class="cls-31" transform="translate(733 2161.18)">Universidad metropolitana de cancun</text></g><g id="card--transparent-v1_colum-1_date-2" data-name="card--transparent-v1  colum-1  date-2"><circle id="form--circle-2" class="cls-32" cx="579" cy="2205.18" r="109"/><g id="year-2" class="cls-5"><text class="cls-33" transform="translate(533 2224.18)">2017</text></g></g><g id="bnt--v1-to--show-2"><circle id="Elipse_22-3" data-name="Elipse 22-3" class="cls-8" cx="1063.5" cy="2024.68" r="19.5"/><path id="Trazado_31-3" data-name="Trazado 31-3" class="cls-28" d="M1053.41,2020.3l10.14,10.14,10.14-10.14"/></g><g id="card--transparent-v1_colum-2_description-3" data-name="card--transparent-v1  colum-2  description-3" class="cls-5"><text class="cls-29" transform="translate(733 1884.18)">Lorem Ipsum is simply dummy text of the printing and typesetting industry. </text><text class="cls-29" transform="translate(733 1911.18)">Lorem Ipsum has been the industry&apos;s standard dummy text ever since the 1500s, </text><text class="cls-29" transform="translate(733 1938.18)">when an unknown printer took a galley of type and scrambled it to make a type </text><text class="cls-29" transform="translate(733 1965.18)">specimen book. It has survived not only five centuries, but also the leap into</text></g><g id="card--transparent-v1_colum-2_title-3" data-name="card--transparent-v1  colum-2  title-3" class="cls-5"><text class="cls-31" transform="translate(733 1841.18)">Universidad metropolitana de cancun</text></g><circle id="form--circle-3" class="cls-32" cx="579" cy="1885.18" r="109"/><g id="year-3" class="cls-5"><text class="cls-33" transform="translate(533 1904.18)">2017</text></g><g id="btn--v1-off"><g id="experiencia" class="cls-5"><text class="cls-34" transform="translate(1062.84 1662.56)">experiencia</text></g><g id="Rectángulo_45" data-name="Rectángulo 45"><path class="cls-1" d="M1067.29,1592.59h209.42a56.3,56.3,0,0,1,56.29,56.3h0a56.29,56.29,0,0,1-56.29,56.29H1067.29a56.29,56.29,0,0,1-56.29-56.29h0A56.3,56.3,0,0,1,1067.29,1592.59Z"/><path class="cls-35" d="M1067.29,1594.09h209.42a54.8,54.8,0,0,1,54.79,54.8h0a54.79,54.79,0,0,1-54.79,54.79H1067.29a54.79,54.79,0,0,1-54.79-54.79h0A54.8,54.8,0,0,1,1067.29,1594.09Z"/></g></g><path id="Rectángulo_44" data-name="Rectángulo 44" class="cls-8" d="M706.29,1592.59H865.71a56.3,56.3,0,0,1,56.29,56.3h0a56.29,56.29,0,0,1-56.29,56.29H706.29A56.29,56.29,0,0,1,650,1648.89h0A56.3,56.3,0,0,1,706.29,1592.59Z"/><g id="Eduacion" class="cls-5"><text class="cls-36" transform="translate(697.04 1662.56)">Eduacion</text></g><g id="HABILIDADES" class="cls-5"><text class="cls-37" transform="translate(711 3402.59)">HABILI<tspan class="cls-38" x="246.6" y="0">D</tspan><tspan x="302.73" y="0">ADES</tspan></text></g><rect class="cls-1" x="416" y="3541.59" width="1087.54" height="671.73"/><g id="Grupo_18" data-name="Grupo 18"><path id="Trazado_15" data-name="Trazado 15" class="cls-39" d="M545.27,3800.14a129.28,129.28,0,1,1,129.27-129.27A129.27,129.27,0,0,1,545.27,3800.14Zm0-238A108.72,108.72,0,1,0,654,3670.86h0A108.83,108.83,0,0,0,545.27,3562.15Z"/></g><path id="Trazado_14" data-name="Trazado 14" class="cls-26" d="M578.3,3546.06a10.3,10.3,0,0,0-6.12,19.65h.05a8.59,8.59,0,0,0,1.79.47,108.82,108.82,0,1,1-103.4,25.91,9.71,9.71,0,0,0,1-.93,10.3,10.3,0,1,0-14.69-14.44l-.36.39a129.22,129.22,0,1,0,121.74-31.06Z"/><g id="JAVASCRIPT" class="cls-5"><text class="cls-40" transform="translate(450.41 3680.02)"><tspan class="cls-41">J</tspan><tspan class="cls-42" x="13.06" y="0">A</tspan><tspan class="cls-43" x="34.59" y="0">V</tspan><tspan x="55.13" y="0">ASCRIPT</tspan></text></g><g class="cls-5"><text class="cls-44" transform="translate(510.7 3721.03)">100%</text></g><g id="Grupo_18-2" data-name="Grupo 18-2"><path id="Trazado_15-2" data-name="Trazado 15-2" class="cls-39" d="M959.27,3800.14a129.28,129.28,0,1,1,129.27-129.27A129.27,129.27,0,0,1,959.27,3800.14Zm0-238A108.72,108.72,0,1,0,1068,3670.86h0A108.83,108.83,0,0,0,959.27,3562.15Z"/></g><path id="Trazado_14-2" data-name="Trazado 14-2" class="cls-26" d="M992.3,3546.06a10.3,10.3,0,0,0-6.12,19.65h.05a8.59,8.59,0,0,0,1.79.47,108.82,108.82,0,1,1-103.4,25.91,9.71,9.71,0,0,0,1-.93,10.3,10.3,0,1,0-14.69-14.44l-.36.39a129.22,129.22,0,1,0,121.74-31.06Z"/><g id="MYSQL" class="cls-5"><text class="cls-40" transform="translate(902.62 3680.02)">M<tspan class="cls-45" x="32.35" y="0">Y</tspan><tspan x="52.14" y="0">SQL</tspan></text></g><g class="cls-5"><text class="cls-44" transform="translate(930.65 3721.03)">99%</text></g><g id="Grupo_18-3" data-name="Grupo 18-3"><path id="Trazado_15-3" data-name="Trazado 15-3" class="cls-39" d="M1373.27,3800.14a129.28,129.28,0,1,1,129.27-129.27A129.27,129.27,0,0,1,1373.27,3800.14Zm0-238A108.72,108.72,0,1,0,1482,3670.86h0A108.83,108.83,0,0,0,1373.27,3562.15Z"/></g><path id="Trazado_14-3" data-name="Trazado 14-3" class="cls-26" d="M1406.3,3546.06a10.3,10.3,0,0,0-6.12,19.65h0a8.59,8.59,0,0,0,1.79.47,108.82,108.82,0,1,1-103.4,25.91,9.71,9.71,0,0,0,1-.93,10.3,10.3,0,1,0-14.69-14.44l-.36.39a129.22,129.22,0,1,0,121.74-31.06Z"/><g id="MYSQL-2" class="cls-5"><text class="cls-40" transform="translate(1316.62 3680.02)">M<tspan class="cls-45" x="32.35" y="0">Y</tspan><tspan x="52.14" y="0">SQL</tspan></text></g><g id="_99_2" data-name=" 99 2" class="cls-5"><text class="cls-44" transform="translate(1344.65 3721.03)">99%</text></g><g id="Grupo_50-4" data-name="Grupo 50-4"><g id="Grupo_18-4" data-name="Grupo 18-4"><path id="Trazado_15-4" data-name="Trazado 15-4" class="cls-39" d="M545.27,4213.14a129.28,129.28,0,1,1,129.27-129.27A129.27,129.27,0,0,1,545.27,4213.14Zm0-238A108.72,108.72,0,1,0,654,4083.86h0A108.83,108.83,0,0,0,545.27,3975.15Z"/></g><path id="Trazado_14-4" data-name="Trazado 14-4" class="cls-26" d="M578.3,3959.06a10.3,10.3,0,0,0-6.12,19.65h.05a8.59,8.59,0,0,0,1.79.47,108.82,108.82,0,1,1-103.4,25.91,9.71,9.71,0,0,0,1-.93,10.3,10.3,0,1,0-14.69-14.44l-.36.39a129.22,129.22,0,1,0,121.74-31.06Z"/><g id="MYSQL-3" class="cls-5"><text class="cls-40" transform="translate(488.62 4093.02)">M<tspan class="cls-45" x="32.35" y="0">Y</tspan><tspan x="52.14" y="0">SQL</tspan></text></g><g id="_99_3" data-name=" 99 3" class="cls-5"><text class="cls-44" transform="translate(516.65 4134.03)">99%</text></g></g><g id="Grupo_50-5" data-name="Grupo 50-5"><g id="Grupo_18-5" data-name="Grupo 18-5"><path id="Trazado_15-5" data-name="Trazado 15-5" class="cls-39" d="M959.27,4213.14a129.28,129.28,0,1,1,129.27-129.27A129.27,129.27,0,0,1,959.27,4213.14Zm0-238A108.72,108.72,0,1,0,1068,4083.86h0A108.83,108.83,0,0,0,959.27,3975.15Z"/></g><path id="Trazado_14-5" data-name="Trazado 14-5" class="cls-26" d="M992.3,3959.06a10.3,10.3,0,0,0-6.12,19.65h.05a8.59,8.59,0,0,0,1.79.47,108.82,108.82,0,1,1-103.4,25.91,9.71,9.71,0,0,0,1-.93,10.3,10.3,0,1,0-14.69-14.44l-.36.39a129.22,129.22,0,1,0,121.74-31.06Z"/><g id="MYSQL-4" class="cls-5"><text class="cls-40" transform="translate(902.62 4093.02)">M<tspan class="cls-45" x="32.35" y="0">Y</tspan><tspan x="52.14" y="0">SQL</tspan></text></g><g id="_99_4" data-name=" 99 4" class="cls-5"><text class="cls-44" transform="translate(930.65 4134.03)">99%</text></g></g><g id="Grupo_50-6" data-name="Grupo 50-6"><g id="Grupo_18-6" data-name="Grupo 18-6"><path id="Trazado_15-6" data-name="Trazado 15-6" class="cls-39" d="M1373.27,4213.14a129.28,129.28,0,1,1,129.27-129.27A129.27,129.27,0,0,1,1373.27,4213.14Zm0-238A108.72,108.72,0,1,0,1482,4083.86h0A108.83,108.83,0,0,0,1373.27,3975.15Z"/></g><path id="Trazado_14-6" data-name="Trazado 14-6" class="cls-26" d="M1406.3,3959.06a10.3,10.3,0,0,0-6.12,19.65h0a8.59,8.59,0,0,0,1.79.47,108.82,108.82,0,1,1-103.4,25.91,9.71,9.71,0,0,0,1-.93,10.3,10.3,0,1,0-14.69-14.44l-.36.39a129.22,129.22,0,1,0,121.74-31.06Z"/><g id="MYSQL-5" class="cls-5"><text class="cls-40" transform="translate(1316.62 4093.02)">M<tspan class="cls-45" x="32.35" y="0">Y</tspan><tspan x="52.14" y="0">SQL</tspan></text></g><g id="_99_5" data-name=" 99 5" class="cls-5"><text class="cls-44" transform="translate(1344.65 4134.03)">99%</text></g></g><g id="SERVICIOS" class="cls-5"><text class="cls-46" transform="translate(784.78 4902.27)">SERVICIOS</text></g><g id="PROYECTOS_DESTACADOS" data-name="PROYECTOS DESTACADOS" class="cls-5"><text class="cls-37" transform="translate(481.43 6410.87)">P<tspan class="cls-47" x="46.76" y="0">R</tspan><tspan class="cls-38" x="95.78" y="0">O</tspan><tspan x="155" y="0">YEC</tspan><tspan class="cls-48" x="292.27" y="0">T</tspan><tspan x="333.09" y="0">OS DES</tspan><tspan class="cls-49" x="601.45" y="0">T</tspan><tspan class="cls-50" x="639.77" y="0">A</tspan><tspan x="692.34" y="0">CADOS</tspan></text></g><g id="Lorem_Ipsum_is_simply_dummy_text_of_the_printing_and_typesetting_industry._Lorem_Ipsum_has_been_the_industry_s_standard_dummy_text_ever_since_the_1500s_when_an_unknown_printer_took_a_galley_of_type_and_scrambled_it_to_make_a_type_specimen_book._It_has_" data-name="Lorem Ipsum is simply dummy text of the printing and typesetting industry. Lorem Ipsum has been the industry s standard dummy text ever since the 1500s when an unknown printer took a galley of type and scrambled it to make a type specimen book. It has " class="cls-5"><text class="cls-51" transform="translate(620 6693.37)">Lorem Ipsum is simply dummy text of the printing and typesetting industry. Lorem Ipsum has been the industry&apos;s </text><text class="cls-51" transform="translate(620 6720.37)">standard dummy text ever since the 1500s, when an unknown printer took a galley of type and scrambled it to make a </text><text class="cls-51" transform="translate(620 6747.37)">type specimen book. It has survived not only five centuries, but also the leap into electronic typesetting, remaining </text><text class="cls-51" transform="translate(620 6774.37)">essentially unchanged. It was popularised in the 1960s with the release of Letraset sheets containing Lorem Ipsum </text><text class="cls-51" transform="translate(620 6801.37)">passages, and more recently with desktop publishing software like Aldus <tspan class="cls-30" x="643.55" y="0">P</tspan><tspan x="654.07" y="0">ageMaker including versions of Lorem </tspan></text><text class="cls-51" transform="translate(620 6828.37)">Ipsum.Ipsum is simply dummy text of the printing and typesetting industry. Lorem Ipsum has been the industry&apos;s </text><text class="cls-51" transform="translate(620 6855.37)">standard dummy text ever since the 1500s, when an unknown printer took a galley of type and scrambled it to make a </text><text class="cls-51" transform="translate(620 6882.37)">type specimen book. It has survived not only five centuries, but also the leap into electronic typesetting, remaining </text><text class="cls-51" transform="translate(620 6909.37)">essentially unchanged. It was popularised in the 1960s with the release of Letraset sheets containing Lorem Ipsum </text><text class="cls-51" transform="translate(620 6936.37)">passages, and more recently with desktop publishing software like Aldus <tspan class="cls-30" x="643.55" y="0">P</tspan><tspan x="654.07" y="0">ageMaker including versions of Lorem Ipsum.</tspan></text><text class="cls-51" transform="translate(620 7017.37)">Lorem Ipsum is simply dummy text of the printing and typesetting industry. Lorem Ipsum has been the industry&apos;s </text><text class="cls-51" transform="translate(620 7044.37)">standard dummy text ever since the 1500s, when an unknown printer took a galley of type and scrambled it to make a </text><text class="cls-51" transform="translate(620 7071.37)">type specimen book. It has survived not only five centuries, but also the leap into electronic typesetting, remaining </text><text class="cls-51" transform="translate(620 7098.37)">essentially unchanged. It was popularised in the 1960s with the release of Letraset sheets containing Lorem Ipsum </text><text class="cls-51" transform="translate(620 7125.37)">passages, and more recently with desktop publishing software like Aldus <tspan class="cls-30" x="643.55" y="0">P</tspan><tspan x="654.07" y="0">ageMaker including versions of Lorem </tspan></text><text class="cls-51" transform="translate(620 7152.37)">Ipsum.Ipsum is simply dummy text of the printing and typesetting industry. Lorem Ipsum has been the industry&apos;s </text><text class="cls-51" transform="translate(620 7179.37)">standard dummy text ever since the 1500s, when an unknown printer took a galley of type and scrambled it to make a</text></g><g id="Lorem_Ipsum_is_simply_dummy_text_of_the_printing_and_typesetting_industry._Lorem_Ipsum_has_been_the_industry_s_standard_dummy_text_ever_since_the_1500s_when_an_unknown_printer_took_a_galley_of_type_and_scrambled_it_to_make_a_type_specimen_book._It_has_2" data-name="Lorem Ipsum is simply dummy text of the printing and typesetting industry. Lorem Ipsum has been the industry s standard dummy text ever since the 1500s when an unknown printer took a galley of type and scrambled it to make a type specimen book. It has " class="cls-5"><text class="cls-51" transform="translate(620 7513.51)">Lorem Ipsum is simply dummy text of the printing and typesetting industry. Lorem Ipsum has been the industry&apos;s </text><text class="cls-51" transform="translate(620 7540.51)">standard dummy text ever since the 1500s, when an unknown printer took a galley of type and scrambled it to make a </text><text class="cls-51" transform="translate(620 7567.51)">type specimen book. It has survived not only five centuries, but also the leap into electronic typesetting, remaining </text><text class="cls-51" transform="translate(620 7594.51)">essentially unchanged. It was popularised in the 1960s with the release of Letraset sheets containing Lorem Ipsum </text><text class="cls-51" transform="translate(620 7621.51)">passages, and more recently with desktop publishing software like Aldus <tspan class="cls-30" x="643.55" y="0">P</tspan><tspan x="654.07" y="0">ageMaker including versions of Lorem </tspan></text><text class="cls-51" transform="translate(620 7648.51)">Ipsum.Ipsum is simply dummy text of the printing and typesetting industry. Lorem Ipsum has been the industry&apos;s</text></g><g id="sistemas_de_pago" data-name="sistemas de pago" class="cls-5"><text class="cls-52" transform="translate(620 6633.37)">sistemas de pago</text></g><g id="sistemas_de_pago-2" data-name="sistemas de pago-2" class="cls-5"><text class="cls-52" transform="translate(620 7453.51)">sistemas de pago</text></g><line id="Línea_19" data-name="Línea 19" class="cls-53" x1="209" y1="7343.01" x2="1711" y2="7343.01"/><g id="bnt--v1-to--show-3"><circle id="Elipse_22-4" data-name="Elipse 22-4" class="cls-26" cx="1147.34" cy="7273.11" r="19.5"/><path id="Trazado_31-4" data-name="Trazado 31-4" class="cls-54" d="M1157.43,7277.49l-10.14-10.14-10.14,10.14"/></g><g id="bnt--v1-to--show-4"><circle id="Elipse_22-5" data-name="Elipse 22-5" class="cls-26" cx="1142.61" cy="7747.23" r="19.5"/><path id="Trazado_31-5" data-name="Trazado 31-5" class="cls-54" d="M1132.52,7742.84l10.14,10.14,10.15-10.14"/></g><g id="Grupo_53" data-name="Grupo 53"><path id="Rectángulo_63" data-name="Rectángulo 63" class="cls-55" d="M479.12,5096.89H691.36a6.12,6.12,0,0,1,6.12,6.12v200.91a6.12,6.12,0,0,1-6.12,6.12H479.12a6.11,6.11,0,0,1-6.11-6.11V5103a6.11,6.11,0,0,1,6.11-6.11Z"/><rect id="Rectángulo_64" data-name="Rectángulo 64" class="cls-56" x="493.05" y="5113.16" width="22.18" height="12.7" rx="2.67"/><rect id="Rectángulo_65" data-name="Rectángulo 65" class="cls-56" x="550.58" y="5113.16" width="125.35" height="12.7" rx="2.46"/><rect id="Rectángulo_66" data-name="Rectángulo 66" class="cls-56" x="575.83" y="5141.21" width="100.1" height="37.39" rx="2.6"/><rect id="Rectángulo_67" data-name="Rectángulo 67" class="cls-57" x="575.83" y="5194.77" width="100.1" height="37.39" rx="2.6"/><rect id="Rectángulo_68" data-name="Rectángulo 68" class="cls-57" x="575.83" y="5248.33" width="100.1" height="37.39" rx="2.6"/><rect id="Rectángulo_69" data-name="Rectángulo 69" class="cls-56" x="493.05" y="5141.21" width="53.79" height="142.95" rx="3.73"/></g><g id="desarrollo_front-end" data-name="desarrollo front-end" class="cls-5"><text class="cls-58" transform="translate(389.66 5404.89)">desar<tspan class="cls-59" x="110.57" y="0">r</tspan><tspan x="126.83" y="0">ollo f</tspan><tspan class="cls-59" x="231.97" y="0">r</tspan><tspan x="248.23" y="0">on</tspan><tspan class="cls-60" x="301.35" y="0">t</tspan><tspan x="315.33" y="0">-end</tspan></text></g><g id="Capacitacion" class="cls-5"><text class="cls-58" transform="translate(1191.89 5404.89)">Ca<tspan class="cls-45" x="51.44" y="0">p</tspan><tspan x="78.02" y="0">acitacion</tspan></text></g><g id="Grupo_54" data-name="Grupo 54"><rect id="Rectángulo_70" data-name="Rectángulo 70" class="cls-61" x="1182" y="5096.84" width="244.15" height="213.24" rx="4.68"/><circle id="Elipse_23" data-name="Elipse 23" class="cls-61" cx="1224.05" cy="5199.49" r="42.05"/><path id="Trazado_55" data-name="Trazado 55" class="cls-61" d="M1250.91,5231.83s26.16,9.7,27.77,78.25"/><line id="Línea_21" data-name="Línea 21" class="cls-62" x1="1404.85" y1="5131.51" x2="1310.33" y2="5131.51"/><line id="Línea_23" data-name="Línea 23" class="cls-62" x1="1404.85" y1="5157.55" x2="1309.57" y2="5157.55"/><line id="Línea_24" data-name="Línea 24" class="cls-62" x1="1404.85" y1="5183.58" x2="1297.63" y2="5183.58"/><line id="Línea_25" data-name="Línea 25" class="cls-62" x1="1404.84" y1="5209.62" x2="1315.28" y2="5209.62"/><line id="Línea_26" data-name="Línea 26" class="cls-62" x1="1404.85" y1="5235.66" x2="1297.63" y2="5235.66"/><line id="Línea_27" data-name="Línea 27" class="cls-62" x1="1404.85" y1="5261.7" x2="1297.63" y2="5261.7"/></g><g id="desarrollo_de_sitios_web" data-name="desarrollo de sitios web" class="cls-5"><text class="cls-63" transform="translate(463.68 5475.89)">desarrollo de sitios web</text></g><g id="desarrollo_SPA" data-name="desarrollo SPA" class="cls-5"><text class="cls-63" transform="translate(467.92 5546.89)">desarrollo S<tspan class="cls-64" x="156.05" y="0">P</tspan><tspan x="170.8" y="0">A</tspan></text></g><g id="Grupo_57" data-name="Grupo 57"><circle id="Elipse_24" data-name="Elipse 24" class="cls-65" cx="427.85" cy="5464.39" r="13.39"/><path id="Trazado_56" data-name="Trazado 56" class="cls-65" d="M421.11,5465.86l2.22,3.77,10.37-9.31"/></g><g id="Grupo_57-2" data-name="Grupo 57"><circle id="Elipse_24-2" data-name="Elipse 24" class="cls-66" cx="427.85" cy="5530.39" r="12.85"/><path id="Trazado_56-2" data-name="Trazado 56" class="cls-67" d="M421.1,5531.84l2.23,3.79,10.42-9.35"/></g><g id="capacitación_presencial" data-name="capacitación presencial" class="cls-5"><text class="cls-63" transform="translate(1194.36 5475.89)">capacitación presencial</text></g><g id="capacitacion_online" data-name="capacitacion online" class="cls-5"><text class="cls-63" transform="translate(1193.89 5546.89)">capacitacion online</text></g><rect class="cls-68" y="2881.03" width="1920" height="300"/><path class="cls-23" d="M1920,1280.53v240H0v-240s208.56-60,490.58-60c141,0,300.37,15,461.21,60C1434.32,1415.62,1920,1280.53,1920,1280.53Z"/><path class="cls-24" d="M1920,1404.9v115.59H0V1404.9s469.26-137.77,951.79,0S1920,1404.9,1920,1404.9Z"/><path class="cls-2" d="M0,177.74V0H1920V177.74s-208.56,45-490.58,45c-141,0-293.88-4.16-461.21-32C480.57,109.69,0,177.74,0,177.74Z"/><g id="header_nav" data-name="header  nav" class="cls-5"><text class="cls-69" transform="translate(1040 75)"><tspan xml:space="preserve">educación   habilidades   </tspan><tspan class="cls-70" x="267.43" y="0">c</tspan><tspan x="278.27" y="0">ontac</tspan><tspan class="cls-71" x="339.55" y="0">t</tspan><tspan class="cls-72" x="348.86" y="0" xml:space="preserve">o   pr</tspan><tspan class="cls-73" x="403.05" y="0">o</tspan><tspan x="416.87" y="0">yec</tspan><tspan class="cls-73" x="453.38" y="0">t</tspan><tspan x="462.69" y="0" xml:space="preserve">os   se</tspan><tspan class="cls-74" x="528.3" y="0">r</tspan><tspan x="538.07" y="0" xml:space="preserve">vicios   experiencia </tspan></text></g><g id="Grupo_52" data-name="Grupo 52"><g id="Nohemy_Leon" data-name="Nohemy Leon" class="cls-5"><text class="cls-75" transform="translate(220.93 82.32)">Nohe<tspan class="cls-76" x="81.15" y="0">m</tspan><tspan x="108.22" y="0">y Leon</tspan></text></g><g id="Grupo_51" data-name="Grupo 51"><path id="Trazado_48" data-name="Trazado 48" class="cls-3" d="M183.59,92.16a.82.82,0,0,1-.73-.42q-4.11-7.27-8.88-14.36-4.24-6.3-8.94-12a.86.86,0,0,0-1.51.55V91.32a.85.85,0,0,1-.85.85h-8a.85.85,0,0,1-.85-.85V49.4a.85.85,0,0,1,.85-.85h6.79a.86.86,0,0,1,.6.25q2,2,4.35,4.85,2.52,3,5.13,6.45t5.19,7.11C177.88,68.84,179,70.44,180,72a.86.86,0,0,0,1.56-.48V49.4a.85.85,0,0,1,.85-.85h8.05a.85.85,0,0,1,.85.85V91.32a.85.85,0,0,1-.85.85Z"/></g><path id="Trazado_49" data-name="Trazado 49" class="cls-77" d="M197.42,36.23h-8.17a2.18,2.18,0,0,0-2.18,2.17h0v4.08a2.18,2.18,0,0,0,2.18,2.18h6a2.19,2.19,0,0,1,2.18,2.18h0v6A2.19,2.19,0,0,0,199.6,55h4.08a2.18,2.18,0,0,0,2.17-2.18V38.41a2.17,2.17,0,0,0-2.17-2.18h-6.26Z"/><path id="Trazado_50" data-name="Trazado 50" class="cls-77" d="M149.44,104.73h8.16a2.19,2.19,0,0,0,2.18-2.18h0V98.47a2.18,2.18,0,0,0-2.18-2.18h-6a2.18,2.18,0,0,1-2.18-2.17h0v-6A2.17,2.17,0,0,0,147.25,86h-4.07A2.18,2.18,0,0,0,141,88.13v14.42a2.19,2.19,0,0,0,2.18,2.18Z"/></g><g id="Grupo_57-3" data-name="Grupo 57"><circle id="Elipse_24-3" data-name="Elipse 24" class="cls-65" cx="1154.42" cy="5464.39" r="13.39"/><path id="Trazado_56-3" data-name="Trazado 56" class="cls-65" d="M1147.69,5465.86l2.22,3.77,10.37-9.31"/></g><g id="Grupo_57-4" data-name="Grupo 57"><circle id="Elipse_24-4" data-name="Elipse 24" class="cls-66" cx="1154.42" cy="5530.39" r="12.85"/><path id="Trazado_56-4" data-name="Trazado 56" class="cls-67" d="M1147.68,5531.84l2.23,3.79,10.42-9.35"/></g><rect class="cls-3" y="7889.49" width="1920" height="506.27"/><g class="cls-78"><use transform="translate(234.49 6552.38) scale(0.25)" xlink:href="#image"/></g><g class="cls-79"><use transform="translate(234.49 7403.52) scale(0.25)" xlink:href="#image"/></g><g id="header_nav-2" data-name="header  nav"><text class="cls-80" transform="translate(587.01 8269.02)"><tspan xml:space="preserve">educación   habilidades   </tspan><tspan class="cls-70" x="267.43" y="0">c</tspan><tspan x="278.27" y="0">ontac</tspan><tspan class="cls-71" x="339.55" y="0">t</tspan><tspan class="cls-72" x="348.86" y="0" xml:space="preserve">o   pr</tspan><tspan class="cls-73" x="403.05" y="0">o</tspan><tspan x="416.87" y="0">yec</tspan><tspan class="cls-73" x="453.38" y="0">t</tspan><tspan x="462.69" y="0" xml:space="preserve">os   se</tspan><tspan class="cls-74" x="528.3" y="0">r</tspan><tspan x="538.07" y="0" xml:space="preserve">vicios   experiencia </tspan></text></g><g id="list--icon--v1_text-2-2" data-name="list--icon--v1  text" class="cls-5"><text class="cls-6" transform="translate(1260.63 8193.61)">twii<tspan class="cls-7" x="50.55" y="0">t</tspan><tspan x="62.31" y="0">er: @noeleo25</tspan></text></g><g id="list--icon--v1_ic-container-2-2" data-name="list--icon--v1  ic-container"><path id="Trazado_22-2" data-name="Trazado 22" class="cls-8" d="M1240.63,8174.12a12.34,12.34,0,0,1-3.53,1,6.2,6.2,0,0,0,2.7-3.4,12.22,12.22,0,0,1-3.91,1.49,6.16,6.16,0,0,0-10.49,5.61,17.51,17.51,0,0,1-12.68-6.43,6.17,6.17,0,0,0,1.9,8.22,6.21,6.21,0,0,1-2.79-.77,6.17,6.17,0,0,0,4.94,6.11,6.22,6.22,0,0,1-2.78.1,6.15,6.15,0,0,0,5.75,4.27,12.35,12.35,0,0,1-9.11,2.56,17.34,17.34,0,0,0,9.44,2.76c11.42,0,17.88-9.65,17.49-18.3A12.75,12.75,0,0,0,1240.63,8174.12Z"/><rect id="Rectángulo_55-2" data-name="Rectángulo 55" class="cls-1" x="1210.63" y="8167.61" width="30" height="30"/></g><g id="list--icon--v1_text-2-3" data-name="list--icon--v1  text-2" class="cls-5"><text class="cls-6" transform="translate(746.53 8193.61)">noemi.<tspan class="cls-7" x="92.49" y="0">t</tspan><tspan x="104.25" y="0">elematik213@gmail.</tspan><tspan class="cls-9" x="384.02" y="0">c</tspan><tspan x="397.58" y="0">om</tspan></text></g><g id="list--icon--v1_ic-container-2-3" data-name="list--icon--v1  ic-container-2"><path id="Trazado_21-2" data-name="Trazado 21" class="cls-8" d="M723.53,8171.58h-24a3,3,0,0,0-3,3v18a3,3,0,0,0,3,3h24a3,3,0,0,0,3-3v-18A3,3,0,0,0,723.53,8171.58Zm0,21h-24v-15l12,7.5,12-7.5Zm-12-10.5-12-7.5h24Z"/><rect id="Rectángulo_54-2" data-name="Rectángulo 54" class="cls-1" x="696.53" y="8167.61" width="30" height="30"/></g><g id="list--icon--v1_text-3-2" data-name="list--icon--v1  text-3" class="cls-5"><text class="cls-6" transform="translate(447.71 8193.08)">9981 42 43 33</text></g><g id="list--icon--v1_ic-container-3-2" data-name="list--icon--v1  ic-container-3"><g id="Grupo_34-2" data-name="Grupo 34"><path id="Trazado_20-2" data-name="Trazado 20" class="cls-8" d="M420,8167.1l-13.64,0a2.72,2.72,0,0,0-2.71,2.73v24.55a2.71,2.71,0,0,0,2.71,2.72H420a2.72,2.72,0,0,0,2.72-2.72v-24.55A2.71,2.71,0,0,0,420,8167.1Zm0,24.53H406.39v-19.09H420Z"/><rect id="Rectángulo_53-2" data-name="Rectángulo 53" class="cls-1" x="397.71" y="8167.08" width="30" height="30"/></g></g><g id="Grupo_52-2" data-name="Grupo 52"><g id="Nohemy_Leon-2" data-name="Nohemy Leon" class="cls-5"><text class="cls-81" transform="translate(895.78 8077.98)">Nohe<tspan class="cls-76" x="81.15" y="0">m</tspan><tspan x="108.22" y="0">y Leon</tspan></text></g><g id="Grupo_51-2" data-name="Grupo 51"><path id="Trazado_48-2" data-name="Trazado 48" class="cls-2" d="M858.43,8087.82a.84.84,0,0,1-.73-.42q-4.11-7.27-8.88-14.37-4.23-6.28-8.94-12a.87.87,0,0,0-1.21-.1.89.89,0,0,0-.3.66V8087a.85.85,0,0,1-.85.85h-8a.86.86,0,0,1-.85-.85v-41.92a.86.86,0,0,1,.85-.84h6.79a.81.81,0,0,1,.6.24c1.32,1.34,2.77,2.95,4.35,4.85s3.39,4.17,5.13,6.45,3.47,4.66,5.19,7.12c1.15,1.63,2.24,3.22,3.3,4.78a.86.86,0,0,0,1.18.22.87.87,0,0,0,.37-.71v-22.11a.85.85,0,0,1,.85-.84h8.06a.86.86,0,0,1,.85.84V8087a.86.86,0,0,1-.85.85Z"/></g><path id="Trazado_49-2" data-name="Trazado 49" class="cls-2" d="M872.26,8031.88h-8.17a2.18,2.18,0,0,0-2.17,2.18h0v4.08a2.18,2.18,0,0,0,2.17,2.18h6a2.17,2.17,0,0,1,2.18,2.18h0v6a2.18,2.18,0,0,0,2.18,2.18h4.08a2.18,2.18,0,0,0,2.18-2.18v-14.42a2.19,2.19,0,0,0-2.18-2.18h-6.26Z"/><path id="Trazado_50-2" data-name="Trazado 50" class="cls-2" d="M824.28,8100.38h8.16a2.17,2.17,0,0,0,2.18-2.17h0v-4.07a2.18,2.18,0,0,0-2.18-2.18h-6a2.19,2.19,0,0,1-2.18-2.18h0v-6a2.17,2.17,0,0,0-2.18-2.17H818a2.18,2.18,0,0,0-2.18,2.17v14.43a2.18,2.18,0,0,0,2.18,2.17Z"/></g></g></g></svg>