<svg xmlns="http://www.w3.org/2000/svg" viewBox="0 0 671.96 262.79"><g id="Capa_2" data-name="Capa 2"><g id="Capa_2-2" data-name="Capa 2"><path d="M161.09,210.88a3.06,3.06,0,0,1-2.65-1.54Q143.5,183,126.2,157.21q-15.36-22.85-32.42-43.47a3.11,3.11,0,0,0-5.49,2V207.8a3.08,3.08,0,0,1-3.09,3.08h-29a3.08,3.08,0,0,1-3.08-3.08V55.7a3.08,3.08,0,0,1,3.08-3.08H80.82a3,3,0,0,1,2.19.89q7.18,7.29,15.78,17.6,9.13,11,18.61,23.41t18.85,25.81q6.23,8.9,11.95,17.33a3.08,3.08,0,0,0,5.63-1.74V55.7a3.08,3.08,0,0,1,3.08-3.08h29.24a3.08,3.08,0,0,1,3.08,3.08V207.8a3.08,3.08,0,0,1-3.08,3.08Z"/><path d="M241.85,95.32a7.9,7.9,0,0,1-7.9,7.9h-14.8a7.9,7.9,0,0,1-7.9-7.9V38.51a7.91,7.91,0,0,0-7.9-7.91H169.79a7.91,7.91,0,0,1-7.91-7.9V7.9A7.91,7.91,0,0,1,169.79,0H234a7.9,7.9,0,0,1,7.9,7.9Z"/><path d="M7.9,262.79a7.9,7.9,0,0,1-7.9-7.9V167.47a7.9,7.9,0,0,1,7.9-7.9H22.7a7.9,7.9,0,0,1,7.9,7.9v56.82a7.91,7.91,0,0,0,7.91,7.9H72.07a7.9,7.9,0,0,1,7.9,7.9v14.8a7.9,7.9,0,0,1-7.9,7.9Z"/><path d="M358,106.59q-8.43-15-18.23-29.55A298.7,298.7,0,0,0,318.85,49.5v57.09H299.49V19.44h16q4.14,4.15,9.18,10.19t10.24,12.89q5.22,6.85,10.38,14.21t9.68,14.15V19.44h19.49v87.15Z"/><path d="M455.16,73.39a42.93,42.93,0,0,1-2.26,14.27,31,31,0,0,1-6.54,11.07,29.35,29.35,0,0,1-10.25,7.1,36.52,36.52,0,0,1-26.66,0,29.31,29.31,0,0,1-10.24-7.1,32.34,32.34,0,0,1-6.67-11.07,41,41,0,0,1-2.39-14.27,39.61,39.61,0,0,1,2.45-14.21,32.31,32.31,0,0,1,6.79-10.94,30.54,30.54,0,0,1,10.32-7,33.09,33.09,0,0,1,13-2.52,33.45,33.45,0,0,1,13.14,2.52,29.87,29.87,0,0,1,10.25,7,31.89,31.89,0,0,1,6.66,10.94A40.28,40.28,0,0,1,455.16,73.39Zm-19.11,0q0-8.67-3.46-13.64a11.3,11.3,0,0,0-9.87-5,11.46,11.46,0,0,0-9.93,5q-3.53,5-3.52,13.64t3.52,13.77a11.36,11.36,0,0,0,9.93,5.09,11.2,11.2,0,0,0,9.87-5.09Q436.05,82.06,436.05,73.39Z"/><path d="M466.48,74a40.55,40.55,0,0,1,2.7-15.41,33.12,33.12,0,0,1,7.11-11A29.61,29.61,0,0,1,486.41,41a31.73,31.73,0,0,1,11.76-2.27q14.08,0,22.26,8.62t8.17,25.34c0,1.09,0,2.28-.12,3.58s-.17,2.45-.26,3.46h-42.5a12.47,12.47,0,0,0,5.41,9.18q4.77,3.39,12.82,3.39a54.08,54.08,0,0,0,10.13-.94A37.9,37.9,0,0,0,522.19,89l2.51,15.22a25.44,25.44,0,0,1-4,1.51,54,54,0,0,1-5.6,1.32q-3.08.57-6.6.94a66.42,66.42,0,0,1-7,.38,41.7,41.7,0,0,1-15.53-2.64A30.23,30.23,0,0,1,475,98.48a28.7,28.7,0,0,1-6.41-10.88A42.89,42.89,0,0,1,466.48,74Zm44-7.17a19.21,19.21,0,0,0-.81-4.65,11.92,11.92,0,0,0-2.14-4,11.55,11.55,0,0,0-3.65-2.89,12,12,0,0,0-5.47-1.13A12.64,12.64,0,0,0,493,55.22a11.31,11.31,0,0,0-3.77,2.83,12.65,12.65,0,0,0-2.32,4.09,26.25,26.25,0,0,0-1.2,4.71Z"/><path d="M579.4,71.5q0-9-2.32-12.82t-8-3.78c-1.17,0-2.39.07-3.64.19s-2.48.28-3.65.44v51.06H543.06V42.71q2.38-.63,5.6-1.32t6.79-1.26q3.59-.57,7.36-.88t7.41-.32a31.14,31.14,0,0,1,11.64,1.83,26.11,26.11,0,0,1,7.35,4.34,35.12,35.12,0,0,1,18.87-6.17,32.93,32.93,0,0,1,13,2.21,19.52,19.52,0,0,1,8.11,6.22,23.51,23.51,0,0,1,4.15,9.56,61.23,61.23,0,0,1,1.13,12.32v37.35H615.75V71.5q0-9-2.33-12.82t-8-3.78a17.08,17.08,0,0,0-4.22.76,16.12,16.12,0,0,0-4.46,1.89,29.17,29.17,0,0,1,1.13,6.09q.25,3.21.25,6.86v36.09H579.4Z"/><path d="M672,21.33a10.29,10.29,0,0,1-3.34,8.11,11.92,11.92,0,0,1-15.72,0,10.28,10.28,0,0,1-3.33-8.11,10.28,10.28,0,0,1,3.33-8.11,11.92,11.92,0,0,1,15.72,0A10.29,10.29,0,0,1,672,21.33Zm-1.76,85.26H651.46V40.44H670.2Z"/><path d="M357.71,206.3v16.85H299.49V136H319.1v70.3Z"/><path d="M365.88,190.58a40.55,40.55,0,0,1,2.7-15.41,33.12,33.12,0,0,1,7.11-11,29.61,29.61,0,0,1,10.12-6.66,31.73,31.73,0,0,1,11.76-2.27q14.08,0,22.26,8.62T428,189.2c0,1.09,0,2.28-.12,3.58s-.17,2.45-.26,3.46h-42.5a12.47,12.47,0,0,0,5.41,9.18q4.77,3.39,12.82,3.39a54.16,54.16,0,0,0,10.13-.94,37.9,37.9,0,0,0,8.11-2.33l2.51,15.22a26.46,26.46,0,0,1-4,1.51,54,54,0,0,1-5.6,1.32q-3.08.57-6.6.94a66.56,66.56,0,0,1-7,.38,41.66,41.66,0,0,1-15.53-2.64A30.23,30.23,0,0,1,374.37,215,28.85,28.85,0,0,1,368,204.16,43.18,43.18,0,0,1,365.88,190.58Zm44-7.17a19.21,19.21,0,0,0-.81-4.65,11.92,11.92,0,0,0-2.14-4,11.55,11.55,0,0,0-3.65-2.89,12,12,0,0,0-5.47-1.13,12.61,12.61,0,0,0-5.41,1.07,11.21,11.21,0,0,0-3.77,2.83,12.86,12.86,0,0,0-2.33,4.09,27.09,27.09,0,0,0-1.19,4.71Z"/><path d="M504.33,190a42.93,42.93,0,0,1-2.26,14.27,31,31,0,0,1-6.54,11.07,29.35,29.35,0,0,1-10.25,7.1,34.14,34.14,0,0,1-13.39,2.52,33.79,33.79,0,0,1-13.27-2.52,29.35,29.35,0,0,1-10.25-7.1,32.48,32.48,0,0,1-6.66-11.07A40.74,40.74,0,0,1,439.32,190a39.61,39.61,0,0,1,2.45-14.21,32.31,32.31,0,0,1,6.79-10.94,30.5,30.5,0,0,1,10.31-7,35.21,35.21,0,0,1,26.16,0,29.87,29.87,0,0,1,10.25,7,31.89,31.89,0,0,1,6.66,10.94A40.5,40.5,0,0,1,504.33,190Zm-19.11,0q0-8.67-3.46-13.64a11.32,11.32,0,0,0-9.87-5,11.48,11.48,0,0,0-9.94,5q-3.51,5-3.52,13.64T462,203.72a11.4,11.4,0,0,0,9.94,5.09,11.24,11.24,0,0,0,9.87-5.09Q485.21,198.62,485.22,190Z"/><path d="M518.79,159.27a105.91,105.91,0,0,1,12.33-2.58,100.79,100.79,0,0,1,15.84-1.2,38.49,38.49,0,0,1,14,2.21,21,21,0,0,1,8.87,6.22,24.2,24.2,0,0,1,4.65,9.56,50.92,50.92,0,0,1,1.38,12.32v37.35H557.15V188.06q0-9-2.39-12.82t-8.93-3.78c-1.34,0-2.77.07-4.28.19s-2.85.28-4,.44v51.06H518.79Z"/></g></g></svg>