<svg xmlns="http://www.w3.org/2000/svg" viewBox="0 0 372.47 520.83"><g id="Capa_2" data-name="Capa 2"><g id="Capa_2-2" data-name="Capa 2"><path d="M236,210.88a3,3,0,0,1-2.65-1.54Q218.45,183,201.14,157.21q-15.36-22.85-32.41-43.47a3.12,3.12,0,0,0-5.5,2V207.8a3.08,3.08,0,0,1-3.08,3.08h-29a3.08,3.08,0,0,1-3.09-3.08V55.7a3.08,3.08,0,0,1,3.09-3.08h24.62a3,3,0,0,1,2.19.89q7.18,7.29,15.78,17.6,9.13,11,18.61,23.41t18.84,25.81q6.24,8.9,12,17.33a3.08,3.08,0,0,0,5.63-1.74V55.7a3.08,3.08,0,0,1,3.08-3.08h29.23a3.08,3.08,0,0,1,3.09,3.08V207.8a3.08,3.08,0,0,1-3.09,3.08Z"/><path d="M316.8,95.32a7.9,7.9,0,0,1-7.9,7.9H294.1a7.9,7.9,0,0,1-7.9-7.9V38.51a7.91,7.91,0,0,0-7.91-7.91H244.73a7.9,7.9,0,0,1-7.9-7.9V7.9a7.9,7.9,0,0,1,7.9-7.9H308.9a7.9,7.9,0,0,1,7.9,7.9Z"/><path d="M82.85,262.79a7.9,7.9,0,0,1-7.9-7.9V167.47a7.9,7.9,0,0,1,7.9-7.9h14.8a7.9,7.9,0,0,1,7.9,7.9v56.82a7.9,7.9,0,0,0,7.9,7.9H147a7.91,7.91,0,0,1,7.91,7.9v14.8a7.91,7.91,0,0,1-7.91,7.9Z"/><path d="M58.47,402.51q-8.41-15-18.23-29.55a300.41,300.41,0,0,0-20.87-27.54v57.09H0V315.36H16q4.15,4.15,9.18,10.19T35.4,338.44q5.22,6.85,10.37,14.21t9.69,14.14V315.36H75v87.15Z"/><path d="M155.68,369.31a43.23,43.23,0,0,1-2.26,14.27,31,31,0,0,1-6.54,11.07,29.35,29.35,0,0,1-10.25,7.1,34.14,34.14,0,0,1-13.39,2.52A33.79,33.79,0,0,1,110,401.75a29.35,29.35,0,0,1-10.25-7.1,32.48,32.48,0,0,1-6.66-11.07,40.78,40.78,0,0,1-2.39-14.27,39.36,39.36,0,0,1,2.45-14.21,32.16,32.16,0,0,1,6.79-10.94,30.36,30.36,0,0,1,10.31-7,33.14,33.14,0,0,1,13-2.52,33.52,33.52,0,0,1,13.14,2.52,29.69,29.69,0,0,1,10.24,7,31.91,31.91,0,0,1,6.67,10.94A40.46,40.46,0,0,1,155.68,369.31Zm-19.12,0c0-5.79-1.15-10.33-3.45-13.65a11.31,11.31,0,0,0-9.87-5,11.47,11.47,0,0,0-9.94,5c-2.35,3.32-3.52,7.86-3.52,13.65s1.17,10.37,3.52,13.77a11.4,11.4,0,0,0,9.94,5.09,11.24,11.24,0,0,0,9.87-5.09Q136.56,378,136.56,369.31Z"/><path d="M167,369.94a40.52,40.52,0,0,1,2.7-15.41,33.1,33.1,0,0,1,7.1-11,29.68,29.68,0,0,1,10.13-6.67,31.83,31.83,0,0,1,11.75-2.26q14.08,0,22.26,8.62t8.18,25.33c0,1.09-.05,2.29-.13,3.59s-.17,2.45-.25,3.46h-42.5a12.46,12.46,0,0,0,5.4,9.18q4.79,3.39,12.83,3.39a54,54,0,0,0,10.12-.94,37.72,37.72,0,0,0,8.11-2.33l2.52,15.22a27.06,27.06,0,0,1-4,1.51A53.81,53.81,0,0,1,215.6,403c-2.06.37-4.26.69-6.6.94a66.61,66.61,0,0,1-7.05.38,41.74,41.74,0,0,1-15.53-2.64,30.32,30.32,0,0,1-10.94-7.23,28.7,28.7,0,0,1-6.41-10.88A43.18,43.18,0,0,1,167,369.94Zm44-7.17a19.72,19.72,0,0,0-.82-4.65,11.27,11.27,0,0,0-5.78-6.92,12,12,0,0,0-5.47-1.13,12.61,12.61,0,0,0-5.41,1.07,11,11,0,0,0-3.77,2.83,12.44,12.44,0,0,0-2.33,4.08,26.54,26.54,0,0,0-1.19,4.72Z"/><path d="M279.92,367.42q0-9-2.33-12.82t-8-3.78c-1.18,0-2.39.07-3.65.19s-2.47.27-3.65.44v51.06H243.58V338.63q2.38-.63,5.59-1.32c2.14-.46,4.4-.89,6.79-1.26s4.85-.67,7.36-.88,5-.32,7.42-.32a31.08,31.08,0,0,1,11.63,1.83,26.25,26.25,0,0,1,7.36,4.33,35.15,35.15,0,0,1,18.86-6.16,33.21,33.21,0,0,1,13,2.2,19.75,19.75,0,0,1,8.11,6.23,23.65,23.65,0,0,1,4.15,9.56A62,62,0,0,1,335,365.16v37.35H316.26V367.42q0-9-2.33-12.82t-8-3.78a20.83,20.83,0,0,0-8.68,2.64,28,28,0,0,1,1.13,6.1q.25,3.21.26,6.86v36.09H279.92Z"/><path d="M372.47,317.25a10.28,10.28,0,0,1-3.33,8.11,11.95,11.95,0,0,1-15.72,0,11.54,11.54,0,0,1,0-16.22,11.92,11.92,0,0,1,15.72,0A10.28,10.28,0,0,1,372.47,317.25Zm-1.76,85.26H352V336.36h18.74Z"/><path d="M106.26,502.22v16.85H48V431.92H67.65v70.3Z"/><path d="M114.43,486.5a40.52,40.52,0,0,1,2.7-15.41,33,33,0,0,1,7.11-11,29.64,29.64,0,0,1,10.12-6.67,31.92,31.92,0,0,1,11.76-2.26q14.08,0,22.26,8.62t8.17,25.33c0,1.09,0,2.29-.12,3.59s-.17,2.45-.26,3.46h-42.5a12.47,12.47,0,0,0,5.41,9.18q4.77,3.39,12.82,3.39a54.08,54.08,0,0,0,10.13-.94,38.49,38.49,0,0,0,8.11-2.33l2.51,15.22a26.46,26.46,0,0,1-4,1.51,54,54,0,0,1-5.6,1.32c-2.05.37-4.25.69-6.6.94a66.42,66.42,0,0,1-7,.38,41.7,41.7,0,0,1-15.53-2.64A30.23,30.23,0,0,1,122.92,511a28.7,28.7,0,0,1-6.41-10.88A42.89,42.89,0,0,1,114.43,486.5Zm44-7.17a19.21,19.21,0,0,0-.81-4.65,11.92,11.92,0,0,0-2.14-4,11.41,11.41,0,0,0-3.65-2.89,12,12,0,0,0-5.47-1.13A12.64,12.64,0,0,0,141,467.7a11.18,11.18,0,0,0-3.77,2.83,12.6,12.6,0,0,0-2.32,4.08,26.57,26.57,0,0,0-1.2,4.72Z"/><path d="M252.88,485.87a43,43,0,0,1-2.26,14.27,31,31,0,0,1-6.54,11.07,29.35,29.35,0,0,1-10.25,7.1,36.52,36.52,0,0,1-26.66,0,29.35,29.35,0,0,1-10.25-7.1,32.48,32.48,0,0,1-6.66-11.07,41,41,0,0,1-2.39-14.27,39.57,39.57,0,0,1,2.45-14.21,32.31,32.31,0,0,1,6.79-10.94,30.36,30.36,0,0,1,10.31-7,35.21,35.21,0,0,1,26.16,0,29.73,29.73,0,0,1,10.25,7,31.89,31.89,0,0,1,6.66,10.94A40.46,40.46,0,0,1,252.88,485.87Zm-19.11,0c0-5.79-1.16-10.33-3.46-13.65a11.31,11.31,0,0,0-9.87-5,11.47,11.47,0,0,0-9.94,5c-2.34,3.32-3.52,7.86-3.52,13.65s1.18,10.37,3.52,13.77a11.4,11.4,0,0,0,9.94,5.09,11.24,11.24,0,0,0,9.87-5.09Q233.76,494.54,233.77,485.87Z"/><path d="M267.34,455.19a101.88,101.88,0,0,1,12.33-2.58,100.79,100.79,0,0,1,15.84-1.2,38.73,38.73,0,0,1,14,2.2,21.14,21.14,0,0,1,8.87,6.23,24.23,24.23,0,0,1,4.65,9.55,51.07,51.07,0,0,1,1.38,12.33v37.35H305.7V484q0-9-2.39-12.82t-8.93-3.78c-1.34,0-2.77.07-4.28.19s-2.85.27-4,.44v51.06H267.34Z"/></g></g></svg>