<svg xmlns="http://www.w3.org/2000/svg" viewBox="0 0 241.85 262.79"><defs><style>.cls-1{fill:#fff;}.cls-2{fill:#F58F7C}</style></defs><g id="Capa_2" data-name="Capa 2"><g id="Capa_2-2" data-name="Capa 2"><path class="cls-1" d="M161.09,210.88a3.06,3.06,0,0,1-2.65-1.54Q143.5,183,126.2,157.21q-15.36-22.85-32.42-43.47a3.11,3.11,0,0,0-5.49,2V207.8a3.08,3.08,0,0,1-3.09,3.08h-29a3.08,3.08,0,0,1-3.08-3.08V55.7a3.08,3.08,0,0,1,3.08-3.08H80.82a3,3,0,0,1,2.19.89q7.18,7.29,15.78,17.6,9.13,11,18.61,23.41t18.85,25.81q6.23,8.9,11.95,17.33a3.08,3.08,0,0,0,5.63-1.74V55.7a3.08,3.08,0,0,1,3.08-3.08h29.24a3.08,3.08,0,0,1,3.08,3.08V207.8a3.08,3.08,0,0,1-3.08,3.08Z"/><path class="cls-2" d="M241.85,7.9A7.9,7.9,0,0,0,234,0H169.79a7.91,7.91,0,0,0-7.91,7.9V22.7a7.91,7.91,0,0,0,7.91,7.9h33.56a7.91,7.91,0,0,1,7.9,7.91V95.32a7.9,7.9,0,0,0,7.9,7.9H234a7.9,7.9,0,0,0,7.9-7.9Z"/><path class="cls-2" d="M0,254.89a7.9,7.9,0,0,0,7.9,7.9H72.07a7.9,7.9,0,0,0,7.9-7.9v-14.8a7.9,7.9,0,0,0-7.9-7.9H38.51a7.91,7.91,0,0,1-7.91-7.9V167.47a7.9,7.9,0,0,0-7.9-7.9H7.9a7.9,7.9,0,0,0-7.9,7.9Z"/></g></g></svg>