<svg xmlns="http://www.w3.org/2000/svg" viewBox="0 0 30 30"><defs><style>.cls-1{fill:#84dbd0;}.cls-2{fill:none;}</style></defs><g id="Capa_2" data-name="Capa 2"><g id="Capa_2-2" data-name="Capa 2"><g id="list--icon--v1_ic-container" data-name="list--icon--v1  ic-container"><path id="Trazado_22" data-name="Trazado 22" class="cls-1" d="M30,6.51a12.34,12.34,0,0,1-3.53,1,6.2,6.2,0,0,0,2.7-3.4,12.22,12.22,0,0,1-3.91,1.49,6.16,6.16,0,0,0-10.49,5.61A17.51,17.51,0,0,1,2.09,4.75,6.17,6.17,0,0,0,4,13,6.21,6.21,0,0,1,1.2,12.2a6.18,6.18,0,0,0,4.94,6.11,6.22,6.22,0,0,1-2.78.1,6.15,6.15,0,0,0,5.75,4.27A12.36,12.36,0,0,1,0,25.24,17.34,17.34,0,0,0,9.44,28c11.42,0,17.88-9.65,17.49-18.31A12.71,12.71,0,0,0,30,6.51Z"/><rect id="Rectángulo_55" data-name="Rectángulo 55" class="cls-2" width="30" height="30"/></g></g></g></svg>