<svg xmlns="http://www.w3.org/2000/svg" viewBox="0 0 258.55 258.61"><defs><style>.cls-1{fill:#e3e2e2;}.cls-2,.cls-4{fill:#da2884;}.cls-3,.cls-4,.cls-6{isolation:isolate;}.cls-4{font-size:35px;}.cls-4,.cls-6{font-family:SegoeUI-Semibold, Segoe UI;font-weight:600;}.cls-5{letter-spacing:-0.01em;}.cls-6{font-size:30px;fill:#3d44c0;}</style></defs><g id="Capa_2" data-name="Capa 2"><g id="Capa_2-2" data-name="Capa 2"><g id="Grupo_18-2" data-name="Grupo 18-2"><path id="Trazado_15-2" data-name="Trazado 15-2" class="cls-1" d="M129.27,258.54A129.27,129.27,0,1,1,258.54,129.27,129.27,129.27,0,0,1,129.27,258.54Zm0-238A108.71,108.71,0,1,0,238,129.27h0A108.83,108.83,0,0,0,129.27,20.56Z"/></g><path id="Trazado_14-2" data-name="Trazado 14-2" class="cls-2" d="M162.3,4.47a10.3,10.3,0,0,0-6.12,19.64l0,0a10,10,0,0,0,1.79.47A108.82,108.82,0,1,1,54.62,50.51a8.8,8.8,0,0,0,1-.94A10.3,10.3,0,1,0,40.92,35.14l-.36.38A129.23,129.23,0,1,0,162.3,4.47Z"/><g id="MYSQL" class="cls-3"><text class="cls-4" transform="translate(72.62 138.42)">M<tspan class="cls-5" x="32.35" y="0">Y</tspan><tspan x="52.14" y="0">SQL</tspan></text></g><g class="cls-3"><text class="cls-6" transform="translate(100.65 179.43)">99%</text></g></g></g></svg>