<svg xmlns="http://www.w3.org/2000/svg" viewBox="0 0 231.47 220.14"><defs><style>.cls-1,.cls-2,.cls-3{fill:none;stroke:#fff;stroke-miterlimit:10;}.cls-1{stroke-width:7px;}.cls-2{stroke-width:6px;}.cls-3{stroke-width:5px;}</style></defs><g id="Capa_2" data-name="Capa 2"><g id="Capa_2-2" data-name="Capa 2"><g id="Grupo_53" data-name="Grupo 53"><path id="Rectángulo_63" data-name="Rectángulo 63" class="cls-1" d="M9.61,3.5H221.85A6.12,6.12,0,0,1,228,9.62V210.53a6.12,6.12,0,0,1-6.12,6.12H9.61a6.11,6.11,0,0,1-6.11-6.11V9.61A6.11,6.11,0,0,1,9.61,3.5Z"/><rect id="Rectángulo_64" data-name="Rectángulo 64" class="cls-2" x="23.55" y="19.77" width="22.18" height="12.7" rx="2.67"/><rect id="Rectángulo_65" data-name="Rectángulo 65" class="cls-2" x="81.08" y="19.77" width="125.35" height="12.7" rx="2.46"/><rect id="Rectángulo_66" data-name="Rectángulo 66" class="cls-2" x="106.33" y="47.82" width="100.1" height="37.39" rx="2.6"/><rect id="Rectángulo_67" data-name="Rectángulo 67" class="cls-3" x="106.33" y="101.38" width="100.1" height="37.39" rx="2.6"/><rect id="Rectángulo_68" data-name="Rectángulo 68" class="cls-3" x="106.33" y="154.94" width="100.1" height="37.39" rx="2.6"/><rect id="Rectángulo_69" data-name="Rectángulo 69" class="cls-2" x="23.55" y="47.82" width="53.79" height="142.95" rx="3.73"/></g></g></g></svg>