<svg xmlns="http://www.w3.org/2000/svg" viewBox="0 0 288.32 68.5"><defs><style>.cls-1,.cls-2{isolation:isolate;}.cls-2{font-size:32px;font-family:Ubuntu-Bold, Ubuntu;font-weight:700;}.cls-2,.cls-4{fill:#3d44c1;}.cls-3{letter-spacing:-0.02em;}.cls-5{fill:#de5da7;}</style></defs><g id="Capa_2" data-name="Capa 2"><g id="Capa_2-2" data-name="Capa 2"><g id="Grupo_52" data-name="Grupo 52"><g id="Nohemy_Leon" data-name="Nohemy Leon" class="cls-1"><text class="cls-2" transform="translate(79.93 46.09)">Nohe<tspan class="cls-3" x="81.15" y="0">m</tspan><tspan x="108.22" y="0">y Leon</tspan></text></g><g id="Grupo_51" data-name="Grupo 51"><path id="Trazado_48" data-name="Trazado 48" class="cls-4" d="M42.59,55.94a.83.83,0,0,1-.73-.43Q37.75,48.24,33,41.15q-4.24-6.3-8.94-12a.86.86,0,0,0-1.51.55V55.09a.85.85,0,0,1-.85.85h-8a.85.85,0,0,1-.85-.85V13.17a.85.85,0,0,1,.85-.85h6.79a.86.86,0,0,1,.6.25q2,2,4.35,4.85,2.52,3,5.13,6.45T35.74,31q1.71,2.46,3.29,4.78a.86.86,0,0,0,1.56-.48V13.17a.85.85,0,0,1,.85-.85h8.05a.85.85,0,0,1,.85.85V55.09a.85.85,0,0,1-.85.85Z"/></g><path id="Trazado_49" data-name="Trazado 49" class="cls-5" d="M56.42,0H48.25a2.18,2.18,0,0,0-2.18,2.18h0V6.26a2.18,2.18,0,0,0,2.18,2.17h6a2.19,2.19,0,0,1,2.18,2.18h0v6a2.18,2.18,0,0,0,2.18,2.18h4.08a2.18,2.18,0,0,0,2.17-2.18V2.18A2.18,2.18,0,0,0,62.68,0H56.42Z"/><path id="Trazado_50" data-name="Trazado 50" class="cls-5" d="M8.44,68.5H16.6a2.19,2.19,0,0,0,2.18-2.18h0V62.24a2.19,2.19,0,0,0-2.18-2.18h-6a2.18,2.18,0,0,1-2.18-2.17h0v-6a2.18,2.18,0,0,0-2.18-2.18H2.18A2.19,2.19,0,0,0,0,51.9V66.32A2.19,2.19,0,0,0,2.18,68.5Z"/></g></g></g></svg>