<svg xmlns="http://www.w3.org/2000/svg" viewBox="0 0 972.54 262.79"><defs><style>.cls-1{fill:#2c2b30}.cls-2{fill:#f58f7c}</style></defs><g id="Capa_2" data-name="Capa 2"><g id="Capa_2-2" data-name="Capa 2"><path class="cls-1" d="M161.09 210.88a3.06 3.06 0 0 1-2.65-1.54Q143.5 183 126.2 157.21q-15.36-22.85-32.42-43.47a3.11 3.11 0 0 0-5.49 2v92.06a3.08 3.08 0 0 1-3.09 3.08h-29a3.08 3.08 0 0 1-3.08-3.08V55.7a3.08 3.08 0 0 1 3.08-3.08h24.62a3 3 0 0 1 2.19.89q7.18 7.29 15.78 17.6 9.13 11 18.61 23.41t18.85 25.81q6.23 8.9 11.95 17.33a3.08 3.08 0 0 0 5.63-1.74V55.7a3.08 3.08 0 0 1 3.08-3.08h29.24a3.08 3.08 0 0 1 3.08 3.08v152.1a3.08 3.08 0 0 1-3.08 3.08Z"/><path class="cls-2" d="M241.85 95.32a7.9 7.9 0 0 1-7.9 7.9h-14.8a7.9 7.9 0 0 1-7.9-7.9V38.51a7.91 7.91 0 0 0-7.9-7.91h-33.56a7.91 7.91 0 0 1-7.91-7.9V7.9a7.91 7.91 0 0 1 7.91-7.9H234a7.9 7.9 0 0 1 7.9 7.9ZM7.9 262.79a7.9 7.9 0 0 1-7.9-7.9v-87.42a7.9 7.9 0 0 1 7.9-7.9h14.8a7.9 7.9 0 0 1 7.9 7.9v56.82a7.91 7.91 0 0 0 7.91 7.9h33.56a7.9 7.9 0 0 1 7.9 7.9v14.8a7.9 7.9 0 0 1-7.9 7.9Z"/><path class="cls-1" d="M342.39 179q-8.43-15-18.24-29.55a296.85 296.85 0 0 0-20.87-27.54V179h-19.37V91.89h16q4.09 4.11 9.15 10.18T319.31 115q5.22 6.86 10.38 14.21t9.68 14.15V91.89h19.49V179ZM439.59 145.83a42.93 42.93 0 0 1-2.26 14.27 31 31 0 0 1-6.54 11.07 29.51 29.51 0 0 1-10.25 7.11 36.65 36.65 0 0 1-26.66 0 29.51 29.51 0 0 1-10.25-7.11A32.48 32.48 0 0 1 377 160.1a41 41 0 0 1-2.39-14.27 39.61 39.61 0 0 1 2.39-14.21 32.41 32.41 0 0 1 6.79-10.94 30.6 30.6 0 0 1 10.31-7 35.21 35.21 0 0 1 26.16 0 29.87 29.87 0 0 1 10.25 7 32 32 0 0 1 6.66 10.94 40.28 40.28 0 0 1 2.42 14.21Zm-19.11 0q0-8.67-3.46-13.64a11.32 11.32 0 0 0-9.87-5 11.48 11.48 0 0 0-9.94 5q-3.51 5-3.52 13.64t3.52 13.77a11.37 11.37 0 0 0 9.94 5.09 11.22 11.22 0 0 0 9.85-5.09q3.49-5.08 3.48-13.77ZM450.91 146.46a40.47 40.47 0 0 1 2.7-15.4 33.17 33.17 0 0 1 7.11-11 29.61 29.61 0 0 1 10.12-6.66 31.69 31.69 0 0 1 11.76-2.27q14.08 0 22.26 8.62t8.14 25.33c0 1.09 0 2.28-.12 3.58s-.17 2.45-.26 3.46h-42.5a12.43 12.43 0 0 0 5.41 9.18q4.77 3.39 12.82 3.39a54.16 54.16 0 0 0 10.13-.94 37.9 37.9 0 0 0 8.11-2.33l2.51 15.22a25.82 25.82 0 0 1-4 1.51 54 54 0 0 1-5.6 1.32q-3.08.57-6.6.94a66.56 66.56 0 0 1-7 .38 41.66 41.66 0 0 1-15.53-2.64 30.23 30.23 0 0 1-10.94-7.23A28.85 28.85 0 0 1 453 160a43.18 43.18 0 0 1-2.09-13.54Zm44-7.17a19.22 19.22 0 0 0-.82-4.65 11.59 11.59 0 0 0-2.13-4 11.44 11.44 0 0 0-3.65-2.9 12 12 0 0 0-5.47-1.13 12.61 12.61 0 0 0-5.41 1.07 11.21 11.21 0 0 0-3.77 2.83 12.78 12.78 0 0 0-2.33 4.09 27.09 27.09 0 0 0-1.19 4.71ZM563.83 144q0-9.06-2.32-12.83c-1.55-2.52-4.22-3.77-8-3.77a35.26 35.26 0 0 0-3.64.19c-1.26.12-2.48.27-3.65.44V179h-18.73v-63.85q2.38-.63 5.6-1.32c2.13-.46 4.4-.88 6.79-1.26s4.84-.67 7.35-.88 5-.31 7.42-.31a31.27 31.27 0 0 1 11.63 1.82 26.26 26.26 0 0 1 7.36 4.34 34.93 34.93 0 0 1 18.86-6.16 33 33 0 0 1 13 2.2 19.52 19.52 0 0 1 8.11 6.22 23.57 23.57 0 0 1 4.15 9.56 62 62 0 0 1 1.13 12.32V179h-18.72v-35q0-9.06-2.32-12.83c-1.55-2.52-4.21-3.77-8-3.77a17 17 0 0 0-4.21.75 16.12 16.12 0 0 0-4.46 1.89 29.14 29.14 0 0 1 1.13 6.1c.17 2.13.25 4.42.25 6.85V179h-18.73ZM656.38 93.77a10.28 10.28 0 0 1-3.33 8.11 11.92 11.92 0 0 1-15.72 0 10.28 10.28 0 0 1-3.33-8.11 10.28 10.28 0 0 1 3.33-8.11 11.95 11.95 0 0 1 15.72 0 10.28 10.28 0 0 1 3.33 8.11ZM654.62 179h-18.73v-66.11h18.73ZM754.37 162.18V179h-58.22V91.89h19.61v70.29ZM762.54 146.46a40.47 40.47 0 0 1 2.7-15.4 33.17 33.17 0 0 1 7.11-11 29.61 29.61 0 0 1 10.12-6.66 31.73 31.73 0 0 1 11.76-2.27q14.09 0 22.26 8.62t8.17 25.34c0 1.09 0 2.28-.12 3.58s-.17 2.45-.26 3.46h-42.5a12.43 12.43 0 0 0 5.41 9.18q4.77 3.39 12.82 3.39a54.16 54.16 0 0 0 10.13-.94 37.9 37.9 0 0 0 8.11-2.33l2.51 15.22a25.44 25.44 0 0 1-4 1.51 54 54 0 0 1-5.6 1.32q-3.07.57-6.6.94a66.56 66.56 0 0 1-7 .38 41.7 41.7 0 0 1-15.56-2.65 30.23 30.23 0 0 1-11-7.23 28.85 28.85 0 0 1-6.39-10.92 43.18 43.18 0 0 1-2.07-13.54Zm44-7.17a19.21 19.21 0 0 0-.81-4.65 11.78 11.78 0 0 0-2.14-4 11.44 11.44 0 0 0-3.65-2.9 12 12 0 0 0-5.47-1.13 12.61 12.61 0 0 0-5.41 1.07 11.21 11.21 0 0 0-3.77 2.83 12.76 12.76 0 0 0-2.32 4.09 26.25 26.25 0 0 0-1.2 4.71ZM901 145.83a42.93 42.93 0 0 1-2.26 14.27 31 31 0 0 1-6.54 11.07 29.51 29.51 0 0 1-10.25 7.11 36.65 36.65 0 0 1-26.66 0 29.51 29.51 0 0 1-10.29-7.11 32.48 32.48 0 0 1-6.66-11.07 40.74 40.74 0 0 1-2.34-14.27 39.61 39.61 0 0 1 2.45-14.21 32.41 32.41 0 0 1 6.79-10.94 30.5 30.5 0 0 1 10.31-7 35.21 35.21 0 0 1 26.16 0 29.87 29.87 0 0 1 10.25 7 32 32 0 0 1 6.66 10.94 40.5 40.5 0 0 1 2.38 14.21Zm-19.11 0q0-8.67-3.46-13.64a11.32 11.32 0 0 0-9.87-5 11.48 11.48 0 0 0-9.94 5q-3.51 5-3.52 13.64t3.52 13.77a11.37 11.37 0 0 0 9.94 5.09 11.22 11.22 0 0 0 9.87-5.09q3.44-5.08 3.45-13.77ZM915.45 115.15a105.91 105.91 0 0 1 12.33-2.58 102 102 0 0 1 15.84-1.19 38.51 38.51 0 0 1 14 2.2 21 21 0 0 1 8.87 6.22 24.27 24.27 0 0 1 4.65 9.56 51 51 0 0 1 1.38 12.32V179h-18.71v-35q0-9.06-2.39-12.83t-8.93-3.77c-1.34 0-2.77.06-4.28.19s-2.85.27-4 .44V179h-18.76Z"/></g></g></svg>