<svg xmlns="http://www.w3.org/2000/svg" viewBox="0 0 322 112.59"><defs><style>.cls-1,.cls-2{isolation:isolate;}.cls-2{font-size:43px;fill:#75bdc9;font-family:SegoeUI-Semibold, Segoe UI;font-weight:600;}.cls-3,.cls-4{fill:none;}.cls-4{stroke:#84dbd0;stroke-width:3px;}</style></defs><g id="Capa_2" data-name="Capa 2"><g id="Capa_2-2" data-name="Capa 2"><g id="btn--v1-off"><g id="experiencia" class="cls-1"><text class="cls-2" transform="translate(51.84 69.97)">experiencia</text></g><g id="Rectángulo_45" data-name="Rectángulo 45"><path class="cls-3" d="M56.29,0H265.71A56.29,56.29,0,0,1,322,56.29h0a56.29,56.29,0,0,1-56.29,56.3H56.29A56.29,56.29,0,0,1,0,56.29H0A56.29,56.29,0,0,1,56.29,0Z"/><path class="cls-4" d="M56.29,1.5H265.71A54.79,54.79,0,0,1,320.5,56.29h0a54.79,54.79,0,0,1-54.79,54.8H56.29A54.79,54.79,0,0,1,1.5,56.29h0A54.79,54.79,0,0,1,56.29,1.5Z"/></g></g></g></g></svg>